<?xml version="1.0" encoding="UTF-8"?>
<svg version="1.1" xmlns="http://www.w3.org/2000/svg" width="500" height="500">
<path d="M0 0 C165 0 330 0 500 0 C500 165 500 330 500 500 C335 500 170 500 0 500 C0 335 0 170 0 0 Z " fill="none" transform="translate(0,0)"/>
<path d="M0 0 C0.42030352 5.20475854 -0.97514198 8.81888845 -3.28125 13.3671875 C-3.78066101 14.38656906 -3.78066101 14.38656906 -4.29016113 15.42654419 C-5.34912279 17.58165835 -6.42421463 19.72824261 -7.5 21.875 C-8.22373888 23.34061171 -8.94640696 24.80675272 -9.66796875 26.2734375 C-11.43297652 29.85520385 -13.21248873 33.42941454 -15 37 C-13.73446289 36.76990234 -12.46892578 36.53980469 -11.16503906 36.30273438 C-10.41065552 36.16569092 -9.65627197 36.02864746 -8.87902832 35.88745117 C-7.30934242 35.60179192 -5.74001848 35.31414198 -4.17089844 35.02539062 C-3.4905957 34.90357422 -2.81029297 34.78175781 -2.109375 34.65625 C-1.41811523 34.53056641 -0.72685547 34.40488281 -0.01464844 34.27539062 C2 34 2 34 6 34 C7.17683626 37.67761331 7.03578346 41.16669708 7 45 C2.82508955 45.84610386 -1.35175498 46.68173093 -5.53051758 47.50854492 C-6.94577672 47.78999487 -8.36051359 48.07408657 -9.7746582 48.36108398 C-18.84870576 50.20037442 -27.72724858 51.54628434 -37 52 C-37.85430508 42.37540473 -36.24907231 36.53564602 -30 29 C-29.34 28.67 -28.68 28.34 -28 28 C-27.24144569 26.31798826 -26.48945001 24.63211124 -25.796875 22.921875 C-24.67223211 20.20950097 -23.33794166 17.61217181 -22 15 C-23.16015625 15.2165625 -23.16015625 15.2165625 -24.34375 15.4375 C-30.32823915 16.50404262 -35.92337435 17.23371637 -42 17 C-42.02687279 15.18757948 -42.04633715 13.37504767 -42.0625 11.5625 C-42.07410156 10.55316406 -42.08570313 9.54382813 -42.09765625 8.50390625 C-42 6 -42 6 -41 5 C-38.48594293 4.55455506 -35.98426239 4.16371402 -33.45703125 3.80859375 C-32.69581467 3.69902847 -31.93459808 3.5894632 -31.15031433 3.47657776 C-29.5340168 3.24509352 -27.91741281 3.01574078 -26.30053711 2.78833008 C-23.83939553 2.44129245 -21.37965108 2.08540976 -18.91992188 1.72851562 C-17.34903493 1.50467017 -15.77807352 1.28134646 -14.20703125 1.05859375 C-13.47555374 0.95236191 -12.74407623 0.84613007 -11.99043274 0.73667908 C-7.96086783 0.17664614 -4.06743396 -0.10820404 0 0 Z " fill="#F0F014" transform="translate(328,210)"/>
<path d="M0 0 C4.61113143 2.07154213 7.16174934 4.72584243 9.453125 9.30859375 C10.203125 12.68359375 10.203125 12.68359375 10.453125 15.30859375 C7.153125 15.30859375 3.853125 15.30859375 0.453125 15.30859375 C0.205625 14.33921875 -0.041875 13.36984375 -0.296875 12.37109375 C-1.17771557 9.28517219 -1.17771557 9.28517219 -3.171875 8.43359375 C-9.9428599 8.01068964 -9.9428599 8.01068964 -16.546875 9.30859375 C-18.83340927 14.21927137 -18.91311335 18.99903112 -18.921875 24.30859375 C-18.94636719 25.08976562 -18.97085938 25.8709375 -18.99609375 26.67578125 C-19.02391545 32.18447837 -18.03589659 35.03086614 -14.546875 39.30859375 C-13.49499848 40.58297806 -13.49499848 40.58297806 -11.11328125 40.44140625 C-10.12199219 40.43882812 -9.13070312 40.43625 -8.109375 40.43359375 C-7.12066406 40.43617188 -6.13195312 40.43875 -5.11328125 40.44140625 C-2.55778424 40.4808779 -2.55778424 40.4808779 -0.546875 39.30859375 C-0.08036293 37.18282593 -0.08036293 37.18282593 0.078125 34.74609375 C0.201875 33.28171875 0.325625 31.81734375 0.453125 30.30859375 C-2.846875 30.30859375 -6.146875 30.30859375 -9.546875 30.30859375 C-9.546875 27.99859375 -9.546875 25.68859375 -9.546875 23.30859375 C-2.946875 23.30859375 3.653125 23.30859375 10.453125 23.30859375 C10.6078125 28.13484375 10.6078125 28.13484375 10.765625 33.05859375 C10.81114502 34.06631836 10.85666504 35.07404297 10.90356445 36.11230469 C11.00609633 42.69815862 11.00609633 42.69815862 8.16015625 45.83984375 C7.26683594 46.32453125 6.37351563 46.80921875 5.453125 47.30859375 C4.84210938 47.6540625 4.23109375 47.99953125 3.6015625 48.35546875 C-2.93738342 50.94800237 -9.59381887 51.6558485 -16.33203125 49.359375 C-22.75523082 46.36062056 -25.97979176 43.27485845 -29.296875 36.99609375 C-31.95315759 29.27673109 -31.98909643 18.64110945 -28.796875 11.12109375 C-22.5338885 -0.37564721 -12.65734389 -3.43611943 0 0 Z " fill="#080808" transform="translate(197.546875,211.69140625)"/>
<path d="M0 0 C4.75982924 2.62772498 7.04616381 6.26349144 8.75 11.375 C8.75 14.675 8.75 17.975 8.75 21.375 C1.16 21.375 -6.43 21.375 -14.25 21.375 C-12.08333333 27.20833333 -12.08333333 27.20833333 -9.25 28.375 C-7.16761534 28.35163986 -7.16761534 28.35163986 -4.875 28.0625 C-4.10414063 27.98386719 -3.33328125 27.90523437 -2.5390625 27.82421875 C-0.15239122 27.35584469 1.63597746 26.55750119 3.75 25.375 C5.07 26.695 6.39 28.015 7.75 29.375 C6.00815987 33.54141156 4.03825982 34.78161578 0.02734375 36.609375 C-5.449754 38.45073205 -10.32648036 38.06750893 -15.5625 35.6875 C-20.74619679 32.7607209 -23.33046355 28.93840224 -25.25 23.375 C-26.16002849 16.2958249 -25.5195823 10.219768 -21.25 4.375 C-18.75 2 -18.75 2 -16.25 0.375 C-15.651875 -0.0375 -15.05375 -0.45 -14.4375 -0.875 C-9.34878983 -2.61970063 -4.81322619 -2.15517591 0 0 Z " fill="#0C0C0C" transform="translate(239.25,224.625)"/>
<path d="M0 0 C3.99062983 2.10825727 6.43639258 3.751401 8 8 C8.22705078 11.20800781 8.22705078 11.20800781 8.1953125 14.953125 C8.1924826 15.61334656 8.18965271 16.27356812 8.18673706 16.95379639 C8.17558415 19.05271897 8.15048946 21.15120742 8.125 23.25 C8.11496384 24.67707715 8.1058391 26.10416102 8.09765625 27.53125 C8.07566111 31.02097328 8.04116536 34.51044423 8 38 C4.7 38 1.4 38 -2 38 C-2.01981934 37.19256348 -2.03963867 36.38512695 -2.06005859 35.55322266 C-2.15505899 31.91014125 -2.26483912 28.26765314 -2.375 24.625 C-2.4059375 23.35398438 -2.436875 22.08296875 -2.46875 20.7734375 C-2.50742187 19.56171875 -2.54609375 18.35 -2.5859375 17.1015625 C-2.6173584 15.98088379 -2.6487793 14.86020508 -2.68115234 13.70556641 C-2.73411203 10.85289588 -2.73411203 10.85289588 -5 9 C-9.34194936 9.09695116 -9.34194936 9.09695116 -13 11 C-13.15825258 12.99782126 -13.25119171 15.00088834 -13.31640625 17.00390625 C-13.35830078 18.21884766 -13.40019531 19.43378906 -13.44335938 20.68554688 C-13.48267578 21.96494141 -13.52199219 23.24433594 -13.5625 24.5625 C-13.60568359 25.84576172 -13.64886719 27.12902344 -13.69335938 28.45117188 C-13.799848 31.63399853 -13.90185962 34.81690674 -14 38 C-17.3 38 -20.6 38 -24 38 C-24 25.79 -24 13.58 -24 1 C-20.7 1 -17.4 1 -14 1 C-13.67 1.66 -13.34 2.32 -13 3 C-11.7315625 2.2575 -11.7315625 2.2575 -10.4375 1.5 C-6.51916938 -0.209817 -4.23186637 -0.5289833 0 0 Z " fill="#060606" transform="translate(277,223)"/>
<path d="M0 0 C0.4549124 5.28124866 -1.04429744 8.82655446 -3.5 13.3671875 C-3.85513672 14.04677521 -4.21027344 14.72636292 -4.57617188 15.42654419 C-5.70604692 17.58226114 -6.85265437 19.72853964 -8 21.875 C-8.77195779 23.34055409 -9.54280354 24.80669451 -10.3125 26.2734375 C-12.19552725 29.85587409 -14.09360579 33.42994728 -16 37 C-14.75863281 36.7834375 -13.51726562 36.566875 -12.23828125 36.34375 C-10.59639133 36.06228316 -8.95446215 35.78104518 -7.3125 35.5 C-6.49587891 35.35691406 -5.67925781 35.21382812 -4.83789062 35.06640625 C-0.85021752 34.38834038 2.93730404 33.80141608 7 34 C7.042721 35.66611905 7.04063832 37.33382885 7 39 C5.10207078 40.89792922 1.88419115 40.77621985 -0.66015625 41.19140625 C-1.32462265 41.30097153 -1.98908905 41.4105368 -2.6736908 41.52342224 C-4.80269144 41.87357931 -6.93256193 42.2180957 -9.0625 42.5625 C-10.50331586 42.79845806 -11.94407195 43.03478143 -13.38476562 43.27148438 C-16.92249245 43.85190182 -20.46102072 44.42726283 -24 45 C-24.43361455 38.58108292 -23.45530697 34.91436737 -20.1875 29.4375 C-19.4698623 28.18779819 -18.7549961 26.93650059 -18.04296875 25.68359375 C-17.69580811 25.07572021 -17.34864746 24.46784668 -16.9909668 23.84155273 C-15.4487427 20.97557679 -14.24326855 18.0069751 -13 15 C-12.01462479 12.9927542 -11.01936943 10.99019747 -10 9 C-11.16015625 9.2165625 -11.16015625 9.2165625 -12.34375 9.4375 C-18.32823915 10.50404262 -23.92337435 11.23371637 -30 11 C-30 9.02 -30 7.04 -30 5 C-7.36413043 -0.3980611 -7.36413043 -0.3980611 0 0 Z " fill="#0C0C02" transform="translate(316,216)"/>
<path d="M0 0 C4.29 0 8.58 0 13 0 C11.68779289 3.28051776 10.61673391 5.84393715 8.8359375 8.76953125 C8.23652344 9.76049805 8.23652344 9.76049805 7.625 10.77148438 C7.2125 11.44501953 6.8 12.11855469 6.375 12.8125 C5.95476562 13.50537109 5.53453125 14.19824219 5.1015625 14.91210938 C4.0710533 16.61010748 3.03598319 18.30533614 2 20 C4.64 20 7.28 20 10 20 C6.97463426 25.55874239 3.50311014 30.59792713 -0.25 35.6875 C-5.35623485 42.67755356 -10.28636493 49.73729944 -15 57 C-16 54 -16 54 -14.48828125 50.5234375 C-13.77233128 49.13578166 -13.04651873 47.75318344 -12.3125 46.375 C-11.56752374 44.93566434 -10.82402367 43.49556363 -10.08203125 42.0546875 C-9.72189941 41.35956055 -9.36176758 40.66443359 -8.99072266 39.94824219 C-7.1687787 36.36541498 -5.58275109 32.69308588 -4 29 C-7.3 29 -10.6 29 -14 29 C-13.60849502 24.82394683 -11.87763906 22.1170644 -9.609375 18.66796875 C-5.99638229 12.6784687 -3.07120769 6.27959092 0 0 Z " fill="#090904" transform="translate(151,209)"/>
<path d="M0 0 C3.27191292 1.35815253 5.49895506 2.49895506 8 5 C8 6.32 8 7.64 8 9 C5.69 9 3.38 9 1 9 C0.67 8.34 0.34 7.68 0 7 C-1.98 7 -3.96 7 -6 7 C-5.8760595 8.97947498 -5.8760595 8.97947498 -5 11 C-2.81461725 11.99927996 -2.81461725 11.99927996 -0.1875 12.5 C6.90619688 14.41062323 6.90619688 14.41062323 9 18 C8.93755468 21.55938305 8.75763448 23.96686207 6.625 26.875 C2.08643659 30.01708236 -3.73157399 29.55457116 -9 29 C-12.125 27.3125 -12.125 27.3125 -14 25 C-14.8125 22.25 -14.8125 22.25 -15 20 C-11.625 19.8125 -11.625 19.8125 -8 20 C-7.34 20.99 -6.68 21.98 -6 23 C-2.91634129 23.2502157 -2.91634129 23.2502157 0 23 C0.33 21.68 0.66 20.36 1 19 C0.33613281 18.91363281 -0.32773437 18.82726562 -1.01171875 18.73828125 C-5.41188003 18.0381096 -8.42790633 17.40046557 -12.125 14.8125 C-14.54095639 11.18856541 -14.77674439 9.27209414 -14 5 C-9.49108041 0.49108041 -6.30378906 -0.4202526 0 0 Z " fill="#0A0A0A" transform="translate(380,229)"/>
<path d="M0 0 C1.4540625 0.0309375 1.4540625 0.0309375 2.9375 0.0625 C3.35780352 5.26725854 1.96235802 8.88138845 -0.34375 13.4296875 C-0.67669067 14.10927521 -1.00963135 14.78886292 -1.35266113 15.48904419 C-2.41162279 17.64415835 -3.48671463 19.79074261 -4.5625 21.9375 C-5.28623888 23.40311171 -6.00890696 24.86925272 -6.73046875 26.3359375 C-8.49547652 29.91770385 -10.27498873 33.49191454 -12.0625 37.0625 C-10.79696289 36.83240234 -9.53142578 36.60230469 -8.22753906 36.36523438 C-7.47315552 36.22819092 -6.71877197 36.09114746 -5.94152832 35.94995117 C-4.37184242 35.66429192 -2.80251848 35.37664198 -1.23339844 35.08789062 C-0.5530957 34.96607422 0.12720703 34.84425781 0.828125 34.71875 C1.51938477 34.59306641 2.21064453 34.46738281 2.92285156 34.33789062 C4.9375 34.0625 4.9375 34.0625 8.9375 34.0625 C10.11321451 37.73660785 10.01116746 41.23179183 9.9375 45.0625 C7.2975 45.3925 4.6575 45.7225 1.9375 46.0625 C1.6075 43.0925 1.2775 40.1225 0.9375 37.0625 C-0.23167969 37.2790625 -1.40085937 37.495625 -2.60546875 37.71875 C-4.15360418 38.00022917 -5.70178361 38.28146644 -7.25 38.5625 C-8.01892578 38.70558594 -8.78785156 38.84867188 -9.58007812 38.99609375 C-13.45671773 39.69488715 -17.103971 40.25289017 -21.0625 40.0625 C-19.67923153 36.31443871 -17.95494234 33.06936677 -15.83984375 29.68359375 C-14.90881836 28.17829102 -14.90881836 28.17829102 -13.95898438 26.64257812 C-12.65014788 24.54295906 -11.34024712 22.44400307 -10.02929688 20.34570312 C-9.40990234 19.34345703 -8.79050781 18.34121094 -8.15234375 17.30859375 C-7.29950806 15.94238892 -7.29950806 15.94238892 -6.42944336 14.54858398 C-4.42421811 10.90164547 -4.0625 8.54751714 -4.0625 4.375 C-4.0625 0.08290816 -4.0625 0.08290816 0 0 Z " fill="#0D0D07" transform="translate(325.0625,209.9375)"/>
<path d="M0 0 C2.31 0 4.62 0 7 0 C7.12391876 4.75047352 7.21448561 9.49999961 7.2746582 14.25170898 C7.29974959 15.86678461 7.33383126 17.48174726 7.37719727 19.09643555 C7.43809286 21.42264706 7.46626124 23.74735359 7.48828125 26.07421875 C7.51408768 26.79212082 7.5398941 27.51002289 7.56648254 28.24967957 C7.56868175 32.21145503 7.12919942 33.83976739 4.609375 36.96484375 C0.74860927 39.97600983 -1.25767333 39.40189209 -6 39 C-6 37.02 -6 35.04 -6 33 C-3.525 32.505 -3.525 32.505 -1 32 C-0.67 21.44 -0.34 10.88 0 0 Z " fill="#010101" transform="translate(353,230)"/>
<path d="M0 0 C0.66 0.66 1.32 1.32 2 2 C-0.31 5.63 -2.62 9.26 -5 13 C-3.74703125 12.7834375 -2.4940625 12.566875 -1.203125 12.34375 C0.44788726 12.06232745 2.09893057 11.78108697 3.75 11.5 C4.575 11.35691406 5.4 11.21382812 6.25 11.06640625 C7.04921875 10.93105469 7.8484375 10.79570312 8.671875 10.65625 C9.4050293 10.53056641 10.13818359 10.40488281 10.89355469 10.27539062 C13 10 13 10 17 10 C17.495 14.455 17.495 14.455 18 19 C12.16276317 21.24976836 6.14369662 22.12331033 0 23.125 C-1.06734375 23.30675781 -2.1346875 23.48851562 -3.234375 23.67578125 C-4.27078125 23.84722656 -5.3071875 24.01867187 -6.375 24.1953125 C-7.31085938 24.35016113 -8.24671875 24.50500977 -9.2109375 24.66455078 C-12.16592824 25.01995671 -15.02656765 25.05646452 -18 25 C-19.07094593 15.25949174 -16.94696652 9.70678314 -11 2 C-10.67 2.66 -10.34 3.32 -10 4 C-11.41664196 7.00182332 -13.03560043 9.86336569 -14.65234375 12.76171875 C-16.44825662 16.49252979 -16.44825662 16.49252979 -16 23 C-6.43 21.35 3.14 19.7 13 18 C13.33 16.35 13.66 14.7 14 13 C13.37955811 13.12640869 12.75911621 13.25281738 12.11987305 13.38305664 C9.31061643 13.95079838 6.49915659 14.5067714 3.6875 15.0625 C2.71103516 15.26166016 1.73457031 15.46082031 0.72851562 15.66601562 C-0.20927734 15.84970703 -1.14707031 16.03339844 -2.11328125 16.22265625 C-2.97735596 16.39547119 -3.84143066 16.56828613 -4.73168945 16.74633789 C-7 17 -7 17 -10 16 C-8.71520038 13.51705004 -7.4226131 11.03874091 -6.125 8.5625 C-5.76019531 7.85544922 -5.39539063 7.14839844 -5.01953125 6.41992188 C-2.2265625 1.11328125 -2.2265625 1.11328125 0 0 Z " fill="#F0F00F" transform="translate(309,237)"/>
<path d="M0 0 C1.39456452 0.00667256 2.78911118 0.01863093 4.18359375 0.03515625 C4.89451172 0.03966797 5.60542969 0.04417969 6.33789062 0.04882812 C8.09899388 0.06064761 9.86005411 0.07858362 11.62109375 0.09765625 C10.4453125 2.578125 10.4453125 2.578125 8.62109375 5.09765625 C6.140625 5.5859375 6.140625 5.5859375 3.43359375 5.41015625 C2.53253906 5.36503906 1.63148438 5.31992188 0.703125 5.2734375 C-0.32748047 5.18642578 -0.32748047 5.18642578 -1.37890625 5.09765625 C-1.61738281 5.90589844 -1.85585937 6.71414062 -2.1015625 7.546875 C-3.66085402 11.88141932 -5.66965271 15.84207564 -7.81640625 19.91015625 C-8.21150391 20.68552734 -8.60660156 21.46089844 -9.01367188 22.25976562 C-9.40103516 22.99646484 -9.78839844 23.73316406 -10.1875 24.4921875 C-10.53611084 25.16096924 -10.88472168 25.82975098 -11.24389648 26.51879883 C-12.37890625 28.09765625 -12.37890625 28.09765625 -15.37890625 29.09765625 C-14.75073739 25.32693613 -13.65955556 22.11173526 -12.12890625 18.61328125 C-11.68546875 17.59621094 -11.24203125 16.57914063 -10.78515625 15.53125 C-10.0890625 13.95537109 -10.0890625 13.95537109 -9.37890625 12.34765625 C-8.6828125 10.74857422 -8.6828125 10.74857422 -7.97265625 9.1171875 C-4.02837394 0.11642699 -4.02837394 0.11642699 0 0 Z " fill="#F9F916" transform="translate(152.37890625,203.90234375)"/>
<path d="M0 0 C1.17571451 3.67410785 1.07366746 7.16929183 1 11 C-1.64 11.33 -4.28 11.66 -7 12 C-7.33 9.03 -7.66 6.06 -8 3 C-8.84304688 3.15597656 -9.68609375 3.31195313 -10.5546875 3.47265625 C-12.19824219 3.76462891 -12.19824219 3.76462891 -13.875 4.0625 C-14.96554687 4.25972656 -16.05609375 4.45695313 -17.1796875 4.66015625 C-20 5 -20 5 -22 4 C-21.67 3.34 -21.34 2.68 -21 2 C-18.21031502 1.51973542 -15.49802117 1.15674493 -12.6875 0.875 C-11.91470703 0.78863281 -11.14191406 0.70226562 -10.34570312 0.61328125 C-6.8537828 0.23496486 -3.52314164 0 0 0 Z " fill="#191911" transform="translate(334,244)"/>
<path d="M0 0 C0.33 0.66 0.66 1.32 1 2 C-0.41664196 5.00182332 -2.03560043 7.86336569 -3.65234375 10.76171875 C-5.17617754 14.42333676 -5.10027542 17.07414463 -5 21 C-0.90587844 20.31029974 3.18751402 19.61644036 7.28027344 18.91870117 C8.6729823 18.68187574 10.06588584 18.44619225 11.45898438 18.21166992 C13.46015745 17.87457773 15.46059685 17.53339896 17.4609375 17.19140625 C18.66540527 16.98717041 19.86987305 16.78293457 21.11083984 16.57250977 C23.92650476 16.14709199 23.92650476 16.14709199 26 15 C26 15.66 26 16.32 26 17 C26.66 17.33 27.32 17.66 28 18 C23.98095965 18.71864142 19.96077811 19.43048217 15.93945312 20.13623047 C14.57356851 20.37690787 13.2080011 20.61939312 11.84277344 20.86376953 C9.87260353 21.21609919 7.90115299 21.56124354 5.9296875 21.90625 C4.74616699 22.11572266 3.56264648 22.32519531 2.34326172 22.54101562 C-0.82262992 22.9756495 -3.80976071 23.08495977 -7 23 C-8.07094593 13.25949174 -5.94696652 7.70678314 0 0 Z " fill="#939328" transform="translate(298,239)"/>
<path d="M0 0 C3.4375 0.875 3.4375 0.875 5.4375 3.875 C5.4375 5.195 5.4375 6.515 5.4375 7.875 C1.1475 7.875 -3.1425 7.875 -7.5625 7.875 C-6.5625 2.875 -6.5625 2.875 -5.4375 1 C-3.5625 -0.125 -3.5625 -0.125 0 0 Z " fill="#F2F2F2" transform="translate(232.5625,231.125)"/>
<path d="M0 0 C0.99 0 1.98 0 3 0 C2.36111113 5.06040549 0.13720723 9.28011534 -2.0625 13.8125 C-2.62807617 14.99489258 -2.62807617 14.99489258 -3.20507812 16.20117188 C-4.13170161 18.13652473 -5.06517467 20.06859549 -6 22 C-6.99 22 -7.98 22 -9 22 C-2.97560976 2.97560976 -2.97560976 2.97560976 0 0 Z " fill="#DFDF14" transform="translate(144,238)"/>
<path d="M0 0 C0.99 0.33 1.98 0.66 3 1 C1.43641182 4.30140476 -0.15411907 7.5890991 -1.75 10.875 C-2.1934375 11.81214844 -2.636875 12.74929687 -3.09375 13.71484375 C-3.75117188 15.05869141 -3.75117188 15.05869141 -4.421875 16.4296875 C-4.81987305 17.25710449 -5.21787109 18.08452148 -5.62792969 18.93701172 C-7.18077614 21.27180754 -8.41828849 21.99706746 -11 23 C-10.34580901 17.93001981 -8.1453591 13.58009223 -6 9 C-5.01 9 -4.02 9 -3 9 C-2.87625 8.2575 -2.7525 7.515 -2.625 6.75 C-2.04513299 4.19858515 -1.26291261 2.2732427 0 0 Z " fill="#DBDB11" transform="translate(148,210)"/>
<path d="M0 0 C0.66 0.66 1.32 1.32 2 2 C-0.31 5.63 -2.62 9.26 -5 13 C-4.34 13.33 -3.68 13.66 -3 14 C-2.67 14.66 -2.34 15.32 -2 16 C-5.96 16.495 -5.96 16.495 -10 17 C-8.71554544 14.35043907 -7.42290321 11.70546207 -6.125 9.0625 C-5.76019531 8.30775391 -5.39539063 7.55300781 -5.01953125 6.77539062 C-4.48779297 5.69741211 -4.48779297 5.69741211 -3.9453125 4.59765625 C-3.62062988 3.93258057 -3.29594727 3.26750488 -2.96142578 2.58227539 C-2 1 -2 1 0 0 Z " fill="#D4D40D" transform="translate(309,237)"/>
<path d="M0 0 C0.625 2.375 0.625 2.375 1 5 C-1 7 -1 7 -3.5 7.25 C-6 7 -6 7 -8 5 C-7.75 2.4375 -7.75 2.4375 -7 0 C-4.3333581 -1.33332095 -2.83319697 -0.67102033 0 0 Z " fill="#171717" transform="translate(345,251)"/>
<path d="M0 0 C2.5625 0.1875 2.5625 0.1875 4.5625 2.1875 C4.02678571 5.72321429 4.02678571 5.72321429 2.5625 7.1875 C0.125 7.375 0.125 7.375 -2.4375 7.1875 C-3.0975 6.5275 -3.7575 5.8675 -4.4375 5.1875 C-3.69457547 0.28419811 -3.69457547 0.28419811 0 0 Z " fill="#0E0E0E" transform="translate(356.4375,218.8125)"/>
<path d="M0 0 C-2.77042109 2.77042109 -4.76533805 2.39796106 -8.625 2.625 C-9.81351562 2.69976562 -11.00203125 2.77453125 -12.2265625 2.8515625 C-13.59941406 2.92503906 -13.59941406 2.92503906 -15 3 C-14.67 2.34 -14.34 1.68 -14 1 C-11.85546875 0.33203125 -11.85546875 0.33203125 -9.1875 -0.1875 C-8.31480469 -0.36667969 -7.44210937 -0.54585937 -6.54296875 -0.73046875 C-4.02642222 -0.99719949 -2.38332645 -0.78333107 0 0 Z " fill="#E7E70E" transform="translate(320,249)"/>
<path d="M0 0 C0.99 0.33 1.98 0.66 3 1 C1.02 4.96 -0.96 8.92 -3 13 C-3.66 13 -4.32 13 -5 13 C-4.54554036 11.58208592 -4.08625056 10.16571954 -3.625 8.75 C-3.24214844 7.56664062 -3.24214844 7.56664062 -2.8515625 6.359375 C-2.04826333 4.13372042 -1.10288338 2.09068328 0 0 Z " fill="#DDDD0E" transform="translate(148,210)"/>
<path d="M0 0 C0.33 0.66 0.66 1.32 1 2 C-0.07518118 4.44332726 -1.19808566 6.76754523 -2.4375 9.125 C-2.77587891 9.78371094 -3.11425781 10.44242188 -3.46289062 11.12109375 C-4.30149926 12.75106547 -5.14984811 14.37601909 -6 16 C-6.33 16 -6.66 16 -7 16 C-6.71601983 9.32646591 -3.92194468 5.28922815 0 0 Z " fill="#EFEF22" transform="translate(298,239)"/>
<path d="M0 0 C1.65 0 3.3 0 5 0 C4.34 1.65 3.68 3.3 3 5 C1.35 5 -0.3 5 -2 5 C-1.34 3.35 -0.68 1.7 0 0 Z " fill="#F4F412" transform="translate(155,224)"/>
<path d="M0 0 C0.33 0 0.66 0 1 0 C0.88601335 1.62580966 0.75844341 3.25067157 0.625 4.875 C0.55539063 5.77992188 0.48578125 6.68484375 0.4140625 7.6171875 C0 10 0 10 -2 12 C-2.66 12 -3.32 12 -4 12 C-2.66666667 8 -1.33333333 4 0 0 Z " fill="#EBEB39" transform="translate(139,248)"/>
<path d="M0 0 C0.66 0.66 1.32 1.32 2 2 C0.02 4.97 0.02 4.97 -2 8 C-2.66 7.67 -3.32 7.34 -4 7 C-3.6875 4.625 -3.6875 4.625 -3 2 C-2.01 1.34 -1.02 0.68 0 0 Z " fill="#DDDD0E" transform="translate(309,237)"/>
<path d="M0 0 C0.33 0 0.66 0 1 0 C0.67 2.97 0.34 5.94 0 9 C-0.99 9.33 -1.98 9.66 -3 10 C-2.39009109 6.44219804 -1.4216319 3.3171411 0 0 Z " fill="#F4F42A" transform="translate(140,223)"/>
</svg>
